<svg id="Capa_1" enable-background="new 0 0 512 512" height="512" viewBox="0 0 512 512" width="512" xmlns="http://www.w3.org/2000/svg"><g><path d="m436 151v50.099l-74.7 54.8-75.3-5.001v-60l75.3-55.1 74.099 5.301c.301 3.3.601 6.601.601 9.901z" fill="#f3f5f9"/><path d="m436 261.099v60l-74.603 54.867-74.797-5.068c-.3-3.299-.6-6.598-.6-9.898v-50.101l75.27-54.989z" fill="#f3f5f9"/><g><path d="m406 512c-7.939 0-15.688-2.212-22.5-6.299-13.623 8.174-31.377 8.174-45 0-6.812 4.087-14.561 6.299-22.5 6.299-24.814 0-45-21.186-45-46 0-35.361 47.432-60 90-60s90 24.639 90 60c0 24.814-20.186 46-45 46z" fill="#aa80ff"/></g><g><path d="m361 106c-42.568 0-90-24.639-90-60 0-24.814 20.186-46 45-46 7.939 0 15.688 2.212 22.5 6.299 13.623-8.174 31.377-8.174 45 0 6.812-4.087 14.561-6.299 22.5-6.299 24.814 0 45 21.186 45 46 0 35.361-47.432 60-90 60z" fill="#aa80ff"/></g><path d="m383.5 505.701c6.812 4.087 14.561 6.299 22.5 6.299 24.814 0 45-21.186 45-46 0-35.361-47.432-60-90-60v105.832c7.844 0 15.688-2.044 22.5-6.131z" fill="#8a73ff"/><path d="m451 46c0-24.814-20.186-46-45-46-7.939 0-15.688 2.212-22.5 6.299-6.812-4.087-14.656-6.13-22.5-6.13v105.831c42.568 0 90-24.639 90-60z" fill="#8a73ff"/><path d="m361 256.106v119.834l.397.027 74.603-54.868v-60l-74.729-5.191z" fill="#e1e6f0"/><path d="m361.3 135.799-.3.22v119.861l.3.02 74.7-54.8v-50.1c0-3.3-.3-6.601-.601-9.901z" fill="#e1e6f0"/><g fill="#c68cff"><path d="m435.399 141.099-149.399 49.8v-39.899c0-41.4 33.6-75 75-75 38.101 0 69.6 28.5 74.399 65.099z"/><path d="m436 201.099v60l-150 49.8v-60z"/><path d="m436 321.099v39.901c0 41.4-33.6 75-75 75-38.101 0-69.6-28.5-74.399-65.101z"/></g><g fill="#aa80ff"><path d="m435.399 141.099c-4.799-36.599-36.298-65.099-74.399-65.099v89.899z"/><path d="m361 285.998 75-24.899v-60l-75 24.899z"/><path d="m361 436c41.4 0 75-33.6 75-75v-39.901l-75 24.999z"/></g><path d="m226 151v50.099l-74.7 54.8-75.3-5v-60l75.3-55.1 74.099 5.301c.301 3.299.601 6.6.601 9.9z" fill="#f3f5f9"/><path d="m226 261.099v60l-74.603 54.867-74.797-5.068c-.3-3.299-.6-6.598-.6-9.898v-50.101l75.27-54.989z" fill="#f3f5f9"/><g><path d="m196 512c-7.939 0-15.688-2.212-22.5-6.299-13.623 8.174-31.377 8.174-45 0-6.812 4.087-14.561 6.299-22.5 6.299-24.814 0-45-21.186-45-46 0-35.361 47.432-60 90-60s90 24.639 90 60c0 24.814-20.186 46-45 46z" fill="#aa80ff"/></g><g><path d="m151 106c-42.568 0-90-24.639-90-60 0-24.814 20.186-46 45-46 7.939 0 15.688 2.212 22.5 6.299 13.623-8.174 31.377-8.174 45 0 6.812-4.087 14.561-6.299 22.5-6.299 24.814 0 45 21.186 45 46 0 35.361-47.432 60-90 60z" fill="#aa80ff"/></g><path d="m173.5 505.701c6.812 4.087 14.561 6.299 22.5 6.299 24.814 0 45-21.186 45-46 0-35.361-47.432-60-90-60v105.832c7.844 0 15.688-2.044 22.5-6.131z" fill="#8a73ff"/><path d="m241 46c0-24.814-20.186-46-45-46-7.939 0-15.688 2.212-22.5 6.299-6.812-4.087-14.656-6.13-22.5-6.13v105.831c42.568 0 90-24.639 90-60z" fill="#8a73ff"/><path d="m151 256.106v119.834l.397.027 74.603-54.868v-60l-74.729-5.191z" fill="#e1e6f0"/><path d="m151.3 135.799-.3.22v119.861l.3.02 74.7-54.8v-50.1c0-3.3-.3-6.601-.601-9.901z" fill="#e1e6f0"/><g fill="#c68cff"><path d="m225.399 141.099-149.399 49.8v-39.899c0-41.4 33.6-75 75-75 38.101 0 69.6 28.5 74.399 65.099z"/><path d="m226 201.099v60l-150 49.8v-60z"/><path d="m226 321.099v39.901c0 41.4-33.6 75-75 75-38.101 0-69.6-28.5-74.399-65.101z"/></g><path d="m225.399 141.099c-4.799-36.599-36.298-65.099-74.399-65.099v89.899z" fill="#aa80ff"/><path d="m151 285.998 75-24.899v-60l-75 24.899z" fill="#aa80ff"/><path d="m151 436c41.4 0 75-33.6 75-75v-39.901l-75 24.999z" fill="#aa80ff"/></g></svg>