<svg id="Capa_1" enable-background="new 0 0 512 512" height="512" viewBox="0 0 512 512" width="512" xmlns="http://www.w3.org/2000/svg"><g><g><g><path d="m271 90h-30v-38.906c0-28.169 22.925-51.094 51.094-51.094h38.906v30h-38.906c-11.631 0-21.094 9.463-21.094 21.094z" fill="#91f2b1"/></g></g><path d="m256 14.971v75.029h15v-38.906c0-11.631 9.463-21.094 21.094-21.094h38.906v-30h-38.906c-14.077 0-26.844 5.728-36.094 14.971z" fill="#73e6ac"/><g><path d="m241 300h30v212h-30z" fill="#ccdeff"/></g><path d="m256 300h15v212h-15z" fill="#adbfe6"/><g><path d="m286 324.009c-20.332 8.057-39.668 8.057-60 0-69.302 27.392-135-41.778-135-129.009 0-87.275 65.698-156.519 135-129.009 20.332-8.057 39.668-8.057 60 0 69.17-27.51 134.985 41.734 135 129.009 0 85.417-64.762 156.841-135 129.009z" fill="#ff7f40"/></g><path d="m286 324.009c70.237 27.832 135-43.592 135-129.009-.015-87.275-65.83-156.519-135-129.009-10.166-4.028-20.083-6.042-30-6.042v270.103c9.917-.001 19.834-2.015 30-6.043z" fill="#f25a3c"/><g id="Pumpkin_candy_1_"><g><g><g><path d="m291.948 138.752h40.603v29.997h-40.603z" fill="#3d4566" transform="matrix(.707 -.707 .707 .707 -17.262 265.826)"/></g></g></g><g><path d="m184.752 133.448h29.997v40.603h-29.997z" fill="#4d5e80" transform="matrix(.707 -.707 .707 .707 -50.212 186.277)"/></g><path d="m346 210h-180v30h45v22.5h30v-22.5h30v22.5h30v-22.5h45z" fill="#4d5e80"/></g><path d="m256 240h15v22.5h30v-22.5h45v-30h-90z" fill="#3d4566"/></g></svg>