<svg id="Capa_1" enable-background="new 0 0 512 512" height="512" viewBox="0 0 512 512" width="512" xmlns="http://www.w3.org/2000/svg"><g><path d="m512 105c0 45-13.801 111.301-38.699 165l-96.301 30-96.301-30c-4.499-9.6-8.699-19.501-12.299-30-17.1-46.8-26.4-98.101-26.4-135 0-5.099.3-10.201.601-15l134.399-30 134.399 30c.301 4.799.601 9.901.601 15z" fill="#ff7f40"/><path d="m473.301 270c24.898-53.699 38.699-120 38.699-165 0-5.099-.3-10.201-.601-15l-134.399-30v240z" fill="#f25a3c"/><path d="m270 407c0 5.099-.3 10.201-.601 15l-134.399 30-134.399-30c-.301-4.799-.601-9.901-.601-15 0-45 13.801-111.301 38.699-165l96.301-30 96.301 30c4.499 9.6 8.699 19.501 12.299 30 17.1 46.8 26.4 98.101 26.4 135z" fill="#ff7f40"/><path d="m269.399 422c.3-4.799.601-9.901.601-15 0-36.899-9.3-88.2-26.4-135-3.6-10.499-7.8-20.4-12.299-30l-96.301-30v240z" fill="#f25a3c"/><g id="_Candy_Corn_1_"><g><path d="m269.399 422c-2.699 38.401-16.5 63.6-41.699 77.1-24.001 12.6-55.2 12.9-87.901 12.9-.899 0-7.2 0-7.2 0-33.9 0-65.7 0-90.3-12.9-25.199-13.5-38.999-38.699-41.698-77.1z" fill="#ffdf40"/><path d="m231.301 242h-192.602c23.401-50.4 56.1-90 96.301-90s72.9 39.6 96.301 90z" fill="#f3f5f9"/></g><g><path d="m86.252 277.948h29.997v40.603h-29.997z" fill="#4d5e80" transform="matrix(.707 -.707 .707 .707 -181.239 158.95)"/></g><g><g><g><path d="m148.448 283.252h40.603v29.997h-40.603z" fill="#3d4566" transform="matrix(.707 -.707 .707 .707 -161.469 206.68)"/></g></g></g><g><path d="m60 347h150v30h-150z" fill="#4d5e80"/></g><g><path d="m473.301 270c-23.401 50.4-56.1 90-96.301 90s-72.9-39.6-96.301-90z" fill="#f3f5f9"/><path d="m511.399 90h-268.798c2.699-38.401 16.5-63.6 41.699-77.1 24.599-12.9 56.101-12.9 90.299-12.9h4.801c33.3 0 65.7 0 90.3 12.9 25.2 13.5 39 38.699 41.699 77.1z" fill="#ffdf40"/></g><g><g><g><path d="m395.752 193.448h29.997v40.603h-29.997z" fill="#3d4566" transform="matrix(.707 -.707 .707 .707 -30.838 353.05)"/></g></g></g><g><path d="m322.948 198.752h40.603v29.997h-40.603z" fill="#4d5e80" transform="matrix(.707 -.707 .707 .707 -50.609 305.32)"/></g><g><path d="m302 135h150v30h-150z" fill="#4d5e80"/></g></g><path d="m231.301 242c-23.401-50.4-56.1-90-96.301-90v90z" fill="#e1e6f0"/><path d="m135 512h4.799c32.701 0 63.9-.3 87.902-12.9 25.199-13.5 39-38.699 41.699-77.1h-134.4z" fill="#ffbe40"/><path d="m135 347h75v30h-75z" fill="#3d4566"/><path d="m377 360c40.201 0 72.9-39.6 96.301-90h-96.301z" fill="#e1e6f0"/><path d="m379.401 0h-2.401v90h134.399c-2.699-38.401-16.5-63.6-41.699-77.1-24.599-12.9-57-12.9-90.299-12.9z" fill="#ffbe40"/><path d="m377 135h75v30h-75z" fill="#3d4566"/></g></svg>