<svg id="Capa_1" enable-background="new 0 0 512 512" height="512" viewBox="0 0 512 512" width="512" xmlns="http://www.w3.org/2000/svg"><g><path d="m421 256-42.475 30-47.525-30c0-4.501 0-5.7-14.7-18.6-16.8-15-45.3-39.6-45.3-86.4 0-5.4.3-10.201.901-15l74.099-30 25.499 30c-10.499 9.6-10.499 11.1-10.499 15 0 4.499 0 5.7 14.7 18.6 16.8 15 45.3 39.6 45.3 86.4z" fill="#ff7f40"/><path d="m378.525 286 42.475-30c0-46.8-28.5-71.4-45.3-86.4-14.7-12.9-14.7-14.101-14.7-18.6 0-3.9 0-5.4 10.499-15l-25.499-30v159.468z" fill="#f25a3c"/><path d="m421 466c0 24.899-20.099 46-45 46-11.7 0-22.2-5.501-30-12.7-9.3-8.101-15-20.099-15-33.3 0-4.501 0-5.7-14.7-18.6-15-13.2-39-34.2-44.399-71.4l44.099-30 30 16.199 25.499 13.801c1.201.899 2.701 2.1 4.2 3.6 16.801 15 45.301 39.6 45.301 86.4z" fill="#c68cff"/><path d="m421 466c0 24.899-20.099 46-45 46-11.7 0-22.2-5.501-30-12.7v-137.1l25.499 13.8c1.201.899 2.701 2.1 4.2 3.6 16.801 15 45.301 39.6 45.301 86.4z" fill="#aa80ff"/><path d="m241 151c0 46.8-28.5 71.4-45.3 86.4-14.7 12.9-14.7 14.099-14.7 18.6l-40.396 30-49.604-30c0-46.8 28.5-71.4 45.3-86.4 14.7-12.9 14.7-14.101 14.7-18.6 0-3.9 0-5.4-10.499-15l18.222-30 81.376 30c.601 4.799.901 9.6.901 15z" fill="#ff7f40"/><path d="m166 108.682v158.458l15-11.14c0-4.501 0-5.7 14.7-18.6 16.8-15 45.3-39.6 45.3-86.4 0-5.4-.3-10.201-.901-15z" fill="#f25a3c"/><path d="m240.099 376c-5.4 37.2-29.399 58.2-44.399 71.4-14.7 12.9-14.7 14.099-14.7 18.6 0 13.2-5.7 25.199-15 33.3-7.8 7.2-18.3 12.7-30 12.7-24.901 0-45-21.101-45-46 0-46.8 28.5-71.4 45.3-86.4 1.5-1.5 2.999-2.701 4.2-3.6l25.5-13.801 30-16.199z" fill="#c68cff"/><path d="m240.099 376c-5.4 37.2-29.399 58.2-44.399 71.4-14.7 12.9-14.7 14.099-14.7 18.6 0 13.2-5.7 25.199-15 33.3v-137.1l30-16.2z" fill="#aa80ff"/><g id="Worm_Candies_1_"><g><path d="m241 361c0 5.4-.3 10.199-.901 15h-99.598c10.499-9.6 10.499-11.1 10.499-15 0-4.501 0-5.7-14.7-18.6-16.8-15-45.3-39.6-45.3-86.4h90c0 4.499 0 5.7 14.7 18.6 16.8 15 45.3 39.6 45.3 86.4z" fill="#ffdf40"/><path d="m240.099 136h-99.598c-1.201-.901-2.701-2.1-4.2-3.6-16.801-15-45.301-39.6-45.301-86.4 0-24.901 20.099-46 45-46 11.7 0 22.2 5.499 30 12.7 9.3 8.099 15 20.099 15 33.3 0 4.499 0 5.7 14.7 18.6 15 13.2 38.999 34.2 44.399 71.4z" fill="#91f2b1"/></g><g><path d="m421 256c0 46.8-28.5 71.4-45.3 86.4-14.7 12.9-14.7 14.099-14.7 18.6 0 3.9 0 5.4 10.499 15h-99.598c-.601-4.801-.901-9.6-.901-15 0-46.8 28.5-71.4 45.3-86.4 14.7-12.9 14.7-14.101 14.7-18.6z" fill="#ffdf40"/><path d="m421 46c0 46.8-28.5 71.4-45.3 86.4-1.5 1.5-2.999 2.699-4.2 3.6h-99.598c5.4-37.2 29.399-58.2 44.399-71.4 14.699-12.9 14.699-14.101 14.699-18.6 0-13.2 5.7-25.201 15-33.3 7.8-7.201 18.3-12.7 30-12.7 24.901 0 45 21.099 45 46z" fill="#91f2b1"/></g></g><path d="m195.7 274.6c-14.7-12.9-14.7-14.101-14.7-18.6h-15v120h74.099c.601-4.801.901-9.6.901-15 0-46.8-28.5-71.4-45.3-86.4z" fill="#ffbe40"/><path d="m240.099 136h-74.099v-123.3c9.3 8.099 15 20.099 15 33.3 0 4.499 0 5.7 14.7 18.6 15 13.2 38.999 34.2 44.399 71.4z" fill="#73e6ac"/><path d="m346 376h25.499c-10.499-9.6-10.499-11.1-10.499-15 0-4.501 0-5.7 14.7-18.6 16.8-15 45.3-39.6 45.3-86.4h-75z" fill="#ffbe40"/><path d="m421 46c0 46.8-28.5 71.4-45.3 86.4-1.5 1.5-2.999 2.699-4.2 3.6h-25.5v-123.3c7.8-7.201 18.3-12.7 30-12.7 24.901 0 45 21.099 45 46z" fill="#73e6ac"/></g></svg>