<svg id="Capa_1" enable-background="new 0 0 512 512" height="512" viewBox="0 0 512 512" width="512" xmlns="http://www.w3.org/2000/svg"><g><g><path d="m45 346c-24.814 0-45-20.186-45-45 0-7.939 2.212-15.688 6.299-22.5-4.087-6.812-6.299-14.561-6.299-22.5s2.212-15.688 6.299-22.5c-4.087-6.812-6.299-14.561-6.299-22.5 0-24.814 20.186-45 45-45 32.051 0 75 44.502 75 90s-42.949 90-75 90z" fill="#ffbe40"/></g><g><path d="m467 346c-32.051 0-75-44.502-75-90s42.949-90 75-90c24.814 0 45 20.186 45 45 0 7.939-2.212 15.688-6.299 22.5 4.087 6.812 6.299 14.561 6.299 22.5s-2.212 15.688-6.299 22.5c4.087 6.812 6.299 14.561 6.299 22.5 0 24.814-20.186 45-45 45z" fill="#ff9f40"/></g><g><path d="m256 406c-90.981 0-165-67.295-165-150s74.019-150 165-150 165 67.295 165 150-74.019 150-165 150z" fill="#ffdf40"/></g><path d="m421 256c0-82.705-74.019-150-165-150v300c90.981 0 165-67.295 165-150z" fill="#ffbe40"/><g><path d="m366.801 275.16-16.641-24.961c-28.22 18.651-60.153 35.801-94.16 35.801-33.978 0-66.144-17.341-94.175-35.771l-16.611 24.946c9.795 6.435 17.365 12.263 35.786 21.187v34.638h30v-22.745c13.929 4.402 29.291 7.745 45 7.745s31.071-3.344 45-7.745v22.745h30v-34.638c18.648-9.034 26.551-15.123 35.801-21.202z" fill="#4d5e80"/><path d="m291.948 184.752h40.603v29.997h-40.603z" fill="#3d4566" transform="matrix(.707 -.707 .707 .707 -49.789 279.3)"/><path d="m184.752 179.448h29.997v40.603h-29.997z" fill="#4d5e80" transform="matrix(.707 -.707 .707 .707 -82.739 199.75)"/></g><path d="m301 308.255v22.745h30v-34.638c18.647-9.034 26.55-15.123 35.801-21.202l-16.641-24.961c-28.22 18.65-60.152 35.801-94.16 35.801v30c15.709 0 31.071-3.344 45-7.745z" fill="#3d4566"/></g></svg>