<svg id="Capa_1" enable-background="new 0 0 512 512" height="512" viewBox="0 0 512 512" width="512" xmlns="http://www.w3.org/2000/svg"><g><g fill="#52cca3"><path d="m346 166-20.099 93.6-74.401-17.701c-28.801-24.372-59.36-27.877-63.9-29.399-.669-3.343-6.6-19.351-6.6-46.5 0-34.2 10.499-66 28.2-92.401l56.7 21z"/><path d="m482.5 258.399c-29.7 43.8-79.8 72.601-136.5 72.601-3.9 0-7.8 0-11.4-.601l-18.6-59.399 30-105 110.099-48.6z"/><path d="m494.2 93.699-38.101 38.701-110.099 33.6-90-105 101.4-60.401c60.3 3.9 111.599 41.501 136.8 93.1z"/></g><path d="m166 346-20.099 123.6-128.101-51.301c-10.8-21.899-17.8-46.499-17.8-72.299 0-34.2 11.499-66 29.2-92.401l56.7 21z" fill="#f25a3c"/><g id="Candies_31_"><g fill="#91f2b1"><path d="m376 241c0 37.5-30 75-30 75l-11.4 14.399c-17.818-.575-32.092-5.336-35.099-6-2.809-7.071-3.279-46.123-48.001-82.5 14.1-1.199 30.6-4.499 44.401-12.299 32.698-18.9 50.099-63.6 50.099-63.6s30 37.5 30 75z"/><path d="m346 16s-30 37.5-30 75 30 75 30 75-47.401 7.2-80.099-11.4c-32.401-18.9-49.802-63.6-49.802-63.6l-6.899-17.401c30-43.8 80.1-73.599 136.8-73.599 3.9 0 7.8 0 11.4.599z"/><path d="m512 166c0 34.2-11.499 66-29.5 92.399l-6.599-17.399s-17.401-44.7-49.801-63.6c-32.699-18.6-80.1-11.4-80.1-11.4s17.401-44.7 50.099-63.6c32.401-18.6 79.802-11.4 79.802-11.4l18.3 2.699c10.799 21.901 17.799 46.201 17.799 72.301z"/></g></g><path d="m302.8 438.399c-29.7 43.8-79.799 73.601-136.8 73.601-3.9 0-7.8 0-11.4-.601l-18.6-60.399 30-105 110.099-48.6z" fill="#f25a3c"/><path d="m314.2 273.699-68.101 38.701-80.099 33.6-90-105 101.4-59.401c60.601 3.9 111.9 40.501 136.8 92.1z" fill="#f25a3c"/><path d="m166 196s-30 37.5-30 75 30 75 30 75-47.401 7.2-80.099-11.4c-32.401-18.9-49.802-63.6-49.802-63.6l-6.899-17.401c29.7-43.8 79.799-72.599 136.8-72.599 3.9 0 7.8 0 11.4.599z" fill="#ff7f40"/><path d="m196 421c0 37.5-30 75-30 75l-11.4 15.399c-60.601-3.9-111.899-41.499-136.8-93.1l18.3 2.701s47.401 7.2 79.801-11.4c32.698-18.9 50.099-63.6 50.099-63.6s30 37.5 30 75z" fill="#ff7f40"/><path d="m331 346c0 34.2-10.499 66-28.2 92.399l-6.899-17.399s-17.401-44.7-49.801-63.6c-32.699-18.6-80.1-11.4-80.1-11.4s17.401-44.7 50.099-63.6c32.401-18.6 79.801-11.4 79.801-11.4l18.3 2.699c10.8 21.901 16.8 46.501 16.8 72.301z" fill="#ff7f40"/></g></svg>