<svg id="Capa_1" enable-background="new 0 0 512 512" height="512" viewBox="0 0 512 512" width="512" xmlns="http://www.w3.org/2000/svg"><g><g><path d="m120 466c-16.876 0-31.816-9.653-39.346-24.082-10.869 2.08-20.332 2.622-27.905-3.486-3.53-2.857-7.749-8.203-7.749-17.432 0-25.342 33.955-75 75-75s75 49.658 75 75c0 9.229-4.219 14.575-7.749 17.432-7.573 6.094-17.021 5.537-27.905 3.486-7.53 14.429-22.472 24.082-39.346 24.082z" fill="#aa80ff"/></g><path d="m159.346 441.918c10.884 2.051 20.332 2.607 27.905-3.486 3.53-2.856 7.749-8.203 7.749-17.432 0-25.342-33.955-75-75-75v120c16.875 0 31.816-9.653 39.346-24.082z" fill="#8a73ff"/><g><path d="m120 166c-41.045 0-75-49.658-75-75 0-9.229 4.219-14.575 7.749-17.432 7.544-6.108 16.992-5.566 27.905-3.486 7.53-14.429 22.47-24.082 39.346-24.082 16.874 0 31.816 9.653 39.346 24.082 10.913-2.051 20.361-2.607 27.905 3.486 3.53 2.857 7.749 8.203 7.749 17.432 0 25.342-33.955 75-75 75z" fill="#aa80ff"/></g><path d="m195 91c0-9.229-4.219-14.575-7.749-17.432-7.544-6.094-16.992-5.537-27.905-3.486-7.53-14.429-22.471-24.082-39.346-24.082v120c41.045 0 75-49.658 75-75z" fill="#8a73ff"/><g><path d="m120 376c-66.167 0-120-53.833-120-120s53.833-120 120-120 120 53.833 120 120-53.833 120-120 120z" fill="#c68cff"/></g><path d="m240 256c0-66.167-53.833-120-120-120v240c66.167 0 120-53.833 120-120z" fill="#aa80ff"/><g id="Sweets_1_"><g><path d="m60.002 211.002h29.997v29.997h-29.997z" fill="#4d5e80" transform="matrix(.707 -.707 .707 .707 -137.839 119.227)"/></g><g><g><g><path d="m150.002 211.002h29.997v29.997h-29.997z" fill="#3d4566" transform="matrix(.707 -.707 .707 .707 -111.479 182.867)"/></g></g></g></g><g><path d="m75 271h90v30h-90z" fill="#4d5e80"/></g><path d="m120 271h45v30h-45z" fill="#3d4566"/><g><path d="m392 466c-16.876 0-31.816-9.653-39.346-24.082-10.869 2.08-20.332 2.622-27.905-3.486-3.53-2.857-7.749-8.203-7.749-17.432 0-25.342 33.955-75 75-75s75 49.658 75 75c0 9.229-4.219 14.575-7.749 17.432-7.573 6.094-17.021 5.537-27.905 3.486-7.53 14.429-22.472 24.082-39.346 24.082z" fill="#aa80ff"/></g><path d="m431.346 441.918c10.884 2.051 20.332 2.607 27.905-3.486 3.53-2.856 7.749-8.203 7.749-17.432 0-25.342-33.955-75-75-75v120c16.875 0 31.816-9.653 39.346-24.082z" fill="#8a73ff"/><g><path d="m392 166c-41.045 0-75-49.658-75-75 0-9.229 4.219-14.575 7.749-17.432 7.544-6.108 16.992-5.566 27.905-3.486 7.53-14.429 22.47-24.082 39.346-24.082 16.874 0 31.816 9.653 39.346 24.082 10.913-2.051 20.361-2.607 27.905 3.486 3.53 2.857 7.749 8.203 7.749 17.432 0 25.342-33.955 75-75 75z" fill="#aa80ff"/></g><path d="m467 91c0-9.229-4.219-14.575-7.749-17.432-7.544-6.094-16.992-5.537-27.905-3.486-7.53-14.429-22.471-24.082-39.346-24.082v120c41.045 0 75-49.658 75-75z" fill="#8a73ff"/><g><path d="m392 376c-66.167 0-120-53.833-120-120s53.833-120 120-120 120 53.833 120 120-53.833 120-120 120z" fill="#c68cff"/></g><path d="m512 256c0-66.167-53.833-120-120-120v240c66.167 0 120-53.833 120-120z" fill="#aa80ff"/><g id="Sweets_2_"><g><path d="m332.002 211.002h29.997v29.997h-29.997z" fill="#4d5e80" transform="matrix(.707 -.707 .707 .707 -58.172 311.56)"/></g><g><g><g><path d="m422.002 211.002h29.997v29.997h-29.997z" fill="#3d4566" transform="matrix(.707 -.707 .707 .707 -31.812 375.2)"/></g></g></g></g><g><path d="m347 271h90v30h-90z" fill="#4d5e80"/></g><path d="m392 271h45v30h-45z" fill="#3d4566"/></g></svg>