<svg id="Capa_1" enable-background="new 0 0 512 512" height="512" viewBox="0 0 512 512" width="512" xmlns="http://www.w3.org/2000/svg"><g><g id="Candies_3_"><g><path d="m360.081 0h30v233.85h-30z" fill="#ccdeff"/></g></g><path d="m375.081 0h15v233.85h-15z" fill="#adbfe6"/><g><g id="Candies_41_"><g><path d="m120.081 278.15h30v233.85h-30z" fill="#ccdeff"/></g></g><path d="m135.081 278.15h15v233.85h-15z" fill="#adbfe6"/><path d="m201.908 59.24-119.056 29.764c-19.088 5.105-37.771-9.306-37.771-28.984 0-14.22 9.894-26.129 23.173-29.22l119.057-29.764c19.088-5.105 37.771 9.306 37.771 28.984-.001 14.22-9.894 26.129-23.174 29.22z" fill="#c68cff"/><path d="m203.746 182.511-119.057 29.764c-19.088 5.105-37.771-9.306-37.771-28.984 0-14.22 9.894-26.129 23.173-29.22l119.056-29.764c19.088-5.105 37.771 9.306 37.771 28.984.001 14.221-9.893 26.13-23.172 29.22z" fill="#c68cff"/><g fill="#ffdf40"><path d="m201.908 121.113-119.056 29.764c-19.088 5.105-37.771-9.306-37.771-28.984 0-14.22 9.894-26.129 23.173-29.22l119.057-29.763c19.088-5.105 37.771 9.306 37.771 28.984-.001 14.22-9.894 26.129-23.174 29.219z"/><path d="m203.746 244.392-119.057 29.764c-19.088 5.105-37.771-9.306-37.771-28.984 0-14.22 9.894-26.129 23.173-29.22l119.056-29.764c19.088-5.105 37.771 9.306 37.771 28.984.001 14.22-9.893 26.129-23.172 29.22z"/></g><path d="m203.746 306.242-119.057 29.765c-19.088 5.105-37.771-9.306-37.771-28.984 0-14.22 9.894-26.129 23.173-29.22l119.056-29.764c19.088-5.105 37.771 9.306 37.771 28.984.001 14.22-9.893 26.129-23.172 29.219z" fill="#c68cff"/><path d="m310.092 452.761 119.056-29.764c19.088-5.105 37.771 9.306 37.771 28.984 0 14.22-9.894 26.129-23.173 29.22l-119.056 29.764c-19.088 5.105-37.771-9.306-37.771-28.984 0-14.221 9.893-26.13 23.173-29.22z" fill="#c68cff"/><path d="m310.092 390.887 119.056-29.764c19.088-5.105 37.771 9.306 37.771 28.984 0 14.22-9.894 26.129-23.173 29.22l-119.057 29.763c-19.088 5.105-37.771-9.306-37.771-28.984.001-14.22 9.894-26.129 23.174-29.219z" fill="#ffbe40"/><path d="m308.254 329.489 119.056-29.764c19.088-5.105 37.771 9.306 37.771 28.984 0 14.22-9.894 26.129-23.173 29.22l-119.056 29.764c-19.088 5.105-37.771-9.306-37.771-28.984 0-14.221 9.894-26.13 23.173-29.22z" fill="#c68cff"/><path d="m308.254 267.608 119.056-29.764c19.088-5.105 37.771 9.306 37.771 28.984 0 14.22-9.894 26.129-23.173 29.22l-119.056 29.764c-19.088 5.105-37.771-9.306-37.771-28.984 0-14.22 9.894-26.129 23.173-29.22z" fill="#ffbe40"/><path d="m308.254 205.758 119.056-29.764c19.088-5.105 37.771 9.306 37.771 28.984 0 14.22-9.894 26.129-23.173 29.22l-119.056 29.764c-19.088 5.105-37.771-9.306-37.771-28.984 0-14.221 9.894-26.13 23.173-29.22z" fill="#c68cff"/><path d="m189.149 248.038-54.067 13.517v61.853l68.665-17.166c13.279-3.091 23.172-15 23.172-29.22-.001-19.677-18.683-34.089-37.77-28.984z" fill="#aa80ff"/><path d="m189.149 186.189-54.067 13.517v61.851l68.665-17.166c13.279-3.089 23.172-14.998 23.172-29.218-.001-19.679-18.683-34.089-37.77-28.984z" fill="#ffbe40"/><path d="m189.149 124.308-54.067 13.517v61.853l68.665-17.166c13.279-3.091 23.172-15 23.172-29.22-.001-19.679-18.683-34.089-37.77-28.984z" fill="#aa80ff"/><path d="m187.31 62.909-52.229 13.057v61.853l66.826-16.707c13.281-3.091 23.174-15 23.174-29.22 0-19.677-18.682-34.088-37.771-28.983z" fill="#ffbe40"/><path d="m187.31 1.036-52.229 13.057v61.853l66.826-16.707c13.281-3.091 23.174-15 23.174-29.22 0-19.678-18.682-34.088-37.771-28.983z" fill="#aa80ff"/><path d="m427.31 175.992-52.229 13.057v61.853l66.826-16.707c13.281-3.089 23.174-14.998 23.174-29.22 0-19.675-18.682-34.086-37.771-28.983z" fill="#aa80ff"/><path d="m427.31 237.844-52.229 13.057v61.853l66.826-16.707c13.281-3.091 23.174-15 23.174-29.22 0-19.678-18.682-34.088-37.771-28.983z" fill="#ff9f40"/><path d="m427.31 299.724-52.229 13.057v61.853l66.826-16.707c13.281-3.091 23.174-15 23.174-29.22 0-19.678-18.682-34.088-37.771-28.983z" fill="#aa80ff"/><path d="m429.149 361.123-54.067 13.517v61.851l68.665-17.166c13.279-3.089 23.172-14.998 23.172-29.218-.001-19.679-18.683-34.089-37.77-28.984z" fill="#ff9f40"/><path d="m429.149 422.996-54.067 13.517v61.853l68.665-17.166c13.279-3.091 23.172-15 23.172-29.22-.001-19.678-18.683-34.089-37.77-28.984z" fill="#aa80ff"/></g></g></svg>