<svg id="Capa_1" enable-background="new 0 0 509.92 509.92" height="512" viewBox="0 0 509.92 509.92" width="512" xmlns="http://www.w3.org/2000/svg"><g><path d="m266.02 372.096-12.748 92.401-76.651 38.099c-18.3-3.6-39.901-9.3-60-18.3l19.499-102.474 68.401-26.225c7.8 1.5 16.199 2.699 24 3.6 13.499.6 26.399 5.099 37.499 12.899z" fill="#aa80ff"/><path d="m155.32 321.396-8.699 86.409-79.801 42.591c-15.599-15.599-28.799-33.6-39-49.199l14.882-95.448 74.818-35.354c11.1 7.8 20.101 18.301 25.501 30.3 3.299 6.602 7.8 14.102 12.299 20.701z" fill="#aa80ff"/><path d="m507.219 374.497c-4.199 21.599-11.699 42.9-19.199 60l-69.451 30-88.65-30c0-13.5 3.6-26.7 10.499-38.401 3.6-6.299 7.202-14.099 10.501-21.599l79.5-30z" fill="#52cca3"/><path d="m507.219 314.497-76.799 30-79.5-30c-3.001-7.2-6.601-15-10.501-21.901-6.899-11.398-10.499-24.598-10.499-38.099l82.5-30 75.901 30c7.199 17.1 14.699 38.399 18.898 60z" fill="#52cca3"/><g id="Candies_42_"><g fill="#c68cff"><path d="m266.02 372.096-89.4 130.5c17.399 3.602 31.8 5.402 39 6 25.794 2.868 53.559-8.412 69.901-32.399 23.399-34.2 14.699-81-19.501-104.101zm-252.9-82.199c-15.601 23.101-17.401 52.5-4.799 76.8 3.3 6.599 9.899 19.501 19.499 34.501l89.7-130.801c-33.549-23.181-80.576-14.981-104.4 19.5z"/><path d="m204.52 355.597-87.9 128.699c-9.3-3.9-18.3-8.699-26.4-14.399-8.401-5.7-16.201-12.301-23.401-19.501l88.5-129c7.5 11.7 15.3 21.601 19.501 24.6 3.901 2.701 15.899 6.6 29.7 9.601z"/></g><path d="m376.119 128.497c-9.6 9.6-21.599 16.199-34.499 19.501-7.5 2.098-15.601 5.099-22.8 8.099l-82.801-22.801-27.599-87.6c18.3-12.599 38.399-22.2 55.8-29.099l84.6 24.6z" fill="#f25a3c"/><path d="m276.221 198.397v.3c-3.001 7.798-6 15.599-7.8 22.798-3.6 12.9-10.201 24.901-19.801 34.2l-90.68-30.68-21.219-81.219c6.899-17.1 16.5-37.5 29.399-55.499l85.5 25.5z" fill="#f25a3c"/><g><path d="m329.92 434.497c0 41.4 33.6 75 75 75 27.599 0 53.101-15.3 66-39.3 3.6-6.301 10.499-19.2 17.1-35.7zm177.299-120h-156.299c5.4 13.2 9 25.199 9 30 0 5.4-3.9 17.399-9 30h156.299c1.501-9.901 2.701-20.101 2.701-30 0-9.901-1.199-20.101-2.701-30zm-35.998-95.4c-13.2-24.3-38.701-39.6-66.301-39.6-41.4 0-75 33.6-75 75h158.401c-6.901-16.201-13.501-29.101-17.1-35.4z" fill="#91f2b1"/></g></g><path d="m248.619 255.696c-28.155 28.743-76.834 29.671-105.899 0-19.801-19.499-27.001-48.3-18.9-74.7 2.1-6.899 6.301-20.7 12.9-37.2z" fill="#ff7f40"/><path d="m318.82 156.096c-13.2 5.4-24 11.1-27.599 14.7s-9.6 15-15 27.601l-110.102-110.099c5.4-8.401 12.001-16.501 18.9-23.401 6.901-7.2 15-13.5 23.401-19.2z" fill="#ff7f40"/><g><path d="m376.119 128.497-111.899-111.9c16.199-6.601 30-11.1 37.2-12.9 26.4-8.101 54.901-.901 74.7 18.6 29.1 29.4 29.1 77.1-.001 106.2z" fill="#ff7f40"/></g></g></svg>