<svg id="Capa_1" enable-background="new 0 0 512 512" height="512" viewBox="0 0 512 512" width="512" xmlns="http://www.w3.org/2000/svg"><g><g><g><path d="m256 100.005-75-100.005h150z" fill="#f25a3c"/></g></g><path d="m256 100.005 75-100.005h-75z" fill="#e63a3a"/><g><g><path d="m128.822 127.822-123.735-17.68 106.055-106.055z" fill="#aa80ff"/></g></g><g><path d="m383.178 127.822 17.68-123.735 106.055 106.055z" fill="#48b3a1"/></g><g><path d="m234.379 210h-129.316l-4.497-6.05c-25.854-34.717-25.884-78.647-.073-104.458 27.51-27.48 76.553-24.858 111.694 5.933l8.159 7.163c-2.17 6.342-9.346 16.23-9.346 37.412 0 29.674 14.741 42.838 23.379 60z" fill="#c68cff"/></g><g><path d="m406.938 210h-129.317c7.975-15.845 23.379-29.974 23.379-60 0-20.834-7.081-30.793-9.346-37.412l8.159-7.163c35.127-30.791 84.185-33.442 111.694-5.933 25.811 25.811 25.781 69.741-.073 104.458z" fill="#52cca3"/></g><g><path d="m312.528 210h-113.056l-4.365-7.324c-9.229-15.513-14.107-33.721-14.107-52.676 0-52.178 35.916-90 75-90 38.639 0 75 37.41 75 90 0 18.955-4.878 37.163-14.106 52.676z" fill="#ff7f40"/></g><path d="m312.528 210 4.365-7.324c9.229-15.513 14.107-33.721 14.107-52.676 0-52.59-36.361-90-75-90v150z" fill="#f25a3c"/><g><path d="m451 255c0-21.601-3.9-43.5-11.4-65.101l-3.6-9.899h-360l-3.6 9.899c-7.5 21.601-11.4 43.5-11.4 65.101 0 21 3.6 41.999 10.499 62.999-6.899 12.9-10.499 27.301-10.499 42.001 0 49.499 40.499 90 90 90v62h60l15-62 15 62h30l15-62 15 62h60v-62c49.501 0 90-40.501 90-90 0-14.7-3.6-29.101-10.499-42.001 6.899-21 10.499-41.999 10.499-62.999z" fill="#f3f5f9"/></g><path d="m439.6 189.899-3.6-9.899h-180v332h15l15-62 15 62h60v-62c49.501 0 90-40.501 90-90 0-14.7-3.6-29.101-10.499-42.001 6.899-21 10.499-41.999 10.499-62.999 0-21.601-3.9-43.5-11.4-65.101z" fill="#cfd7e6"/><g id="Candies_Box_1_"><g><path d="m271 420h30v92h-30z" fill="#adbfe6"/></g><g><path d="m211 420h30v92h-30z" fill="#ccdeff"/></g><g><path d="m196 360c-24.814 0-45-20.186-45-45s20.186-45 45-45 45 20.186 45 45-20.186 45-45 45z" fill="#ccdeff"/></g><g><path d="m316 360c-24.814 0-45-20.186-45-45s20.186-45 45-45 45 20.186 45 45-20.186 45-45 45z" fill="#adbfe6"/></g></g></g></svg>