<svg width="0" height="0" class="hidden">
  <symbol id="001" enable-background="new 0 0 512 512" xmlns="http://www.w3.org/2000/svg" viewBox="0 0 512 512">
    <g>
      <path d="m436 151v50.099l-74.7 54.8-75.3-5.001v-60l75.3-55.1 74.099 5.301c.301 3.3.601 6.601.601 9.901z" fill="#f3f5f9"></path>
      <path d="m436 261.099v60l-74.603 54.867-74.797-5.068c-.3-3.299-.6-6.598-.6-9.898v-50.101l75.27-54.989z" fill="#f3f5f9"></path>
      <g>
        <path d="m406 512c-7.939 0-15.688-2.212-22.5-6.299-13.623 8.174-31.377 8.174-45 0-6.812 4.087-14.561 6.299-22.5 6.299-24.814 0-45-21.186-45-46 0-35.361 47.432-60 90-60s90 24.639 90 60c0 24.814-20.186 46-45 46z" fill="#aa80ff"></path>
      </g>
      <g>
        <path d="m361 106c-42.568 0-90-24.639-90-60 0-24.814 20.186-46 45-46 7.939 0 15.688 2.212 22.5 6.299 13.623-8.174 31.377-8.174 45 0 6.812-4.087 14.561-6.299 22.5-6.299 24.814 0 45 21.186 45 46 0 35.361-47.432 60-90 60z" fill="#aa80ff"></path>
      </g>
      <path d="m383.5 505.701c6.812 4.087 14.561 6.299 22.5 6.299 24.814 0 45-21.186 45-46 0-35.361-47.432-60-90-60v105.832c7.844 0 15.688-2.044 22.5-6.131z" fill="#8a73ff"></path>
      <path d="m451 46c0-24.814-20.186-46-45-46-7.939 0-15.688 2.212-22.5 6.299-6.812-4.087-14.656-6.13-22.5-6.13v105.831c42.568 0 90-24.639 90-60z" fill="#8a73ff"></path>
      <path d="m361 256.106v119.834l.397.027 74.603-54.868v-60l-74.729-5.191z" fill="#e1e6f0"></path>
      <path d="m361.3 135.799-.3.22v119.861l.3.02 74.7-54.8v-50.1c0-3.3-.3-6.601-.601-9.901z" fill="#e1e6f0"></path>
      <g fill="#c68cff">
        <path d="m435.399 141.099-149.399 49.8v-39.899c0-41.4 33.6-75 75-75 38.101 0 69.6 28.5 74.399 65.099z"></path>
        <path d="m436 201.099v60l-150 49.8v-60z"></path>
        <path d="m436 321.099v39.901c0 41.4-33.6 75-75 75-38.101 0-69.6-28.5-74.399-65.101z"></path>
      </g>
      <g fill="#aa80ff">
        <path d="m435.399 141.099c-4.799-36.599-36.298-65.099-74.399-65.099v89.899z"></path>
        <path d="m361 285.998 75-24.899v-60l-75 24.899z"></path>
        <path d="m361 436c41.4 0 75-33.6 75-75v-39.901l-75 24.999z"></path>
      </g>
      <path d="m226 151v50.099l-74.7 54.8-75.3-5v-60l75.3-55.1 74.099 5.301c.301 3.299.601 6.6.601 9.9z" fill="#f3f5f9"></path>
      <path d="m226 261.099v60l-74.603 54.867-74.797-5.068c-.3-3.299-.6-6.598-.6-9.898v-50.101l75.27-54.989z" fill="#f3f5f9"></path>
      <g>
        <path d="m196 512c-7.939 0-15.688-2.212-22.5-6.299-13.623 8.174-31.377 8.174-45 0-6.812 4.087-14.561 6.299-22.5 6.299-24.814 0-45-21.186-45-46 0-35.361 47.432-60 90-60s90 24.639 90 60c0 24.814-20.186 46-45 46z" fill="#aa80ff"></path>
      </g>
      <g>
        <path d="m151 106c-42.568 0-90-24.639-90-60 0-24.814 20.186-46 45-46 7.939 0 15.688 2.212 22.5 6.299 13.623-8.174 31.377-8.174 45 0 6.812-4.087 14.561-6.299 22.5-6.299 24.814 0 45 21.186 45 46 0 35.361-47.432 60-90 60z" fill="#aa80ff"></path>
      </g>
      <path d="m173.5 505.701c6.812 4.087 14.561 6.299 22.5 6.299 24.814 0 45-21.186 45-46 0-35.361-47.432-60-90-60v105.832c7.844 0 15.688-2.044 22.5-6.131z" fill="#8a73ff"></path>
      <path d="m241 46c0-24.814-20.186-46-45-46-7.939 0-15.688 2.212-22.5 6.299-6.812-4.087-14.656-6.13-22.5-6.13v105.831c42.568 0 90-24.639 90-60z" fill="#8a73ff"></path>
      <path d="m151 256.106v119.834l.397.027 74.603-54.868v-60l-74.729-5.191z" fill="#e1e6f0"></path>
      <path d="m151.3 135.799-.3.22v119.861l.3.02 74.7-54.8v-50.1c0-3.3-.3-6.601-.601-9.901z" fill="#e1e6f0"></path>
      <g fill="#c68cff">
        <path d="m225.399 141.099-149.399 49.8v-39.899c0-41.4 33.6-75 75-75 38.101 0 69.6 28.5 74.399 65.099z"></path>
        <path d="m226 201.099v60l-150 49.8v-60z"></path>
        <path d="m226 321.099v39.901c0 41.4-33.6 75-75 75-38.101 0-69.6-28.5-74.399-65.101z"></path>
      </g>
      <path d="m225.399 141.099c-4.799-36.599-36.298-65.099-74.399-65.099v89.899z" fill="#aa80ff"></path>
      <path d="m151 285.998 75-24.899v-60l-75 24.899z" fill="#aa80ff"></path>
      <path d="m151 436c41.4 0 75-33.6 75-75v-39.901l-75 24.999z" fill="#aa80ff"></path>
    </g>
  </symbol>
  <symbol id="002" enable-background="new 0 0 512 512" xmlns="http://www.w3.org/2000/svg" viewBox="0 0 512 512">
    <g>
      <path d="m512 105c0 45-13.801 111.301-38.699 165l-96.301 30-96.301-30c-4.499-9.6-8.699-19.501-12.299-30-17.1-46.8-26.4-98.101-26.4-135 0-5.099.3-10.201.601-15l134.399-30 134.399 30c.301 4.799.601 9.901.601 15z" fill="#ff7f40"></path>
      <path d="m473.301 270c24.898-53.699 38.699-120 38.699-165 0-5.099-.3-10.201-.601-15l-134.399-30v240z" fill="#f25a3c"></path>
      <path d="m270 407c0 5.099-.3 10.201-.601 15l-134.399 30-134.399-30c-.301-4.799-.601-9.901-.601-15 0-45 13.801-111.301 38.699-165l96.301-30 96.301 30c4.499 9.6 8.699 19.501 12.299 30 17.1 46.8 26.4 98.101 26.4 135z" fill="#ff7f40"></path>
      <path d="m269.399 422c.3-4.799.601-9.901.601-15 0-36.899-9.3-88.2-26.4-135-3.6-10.499-7.8-20.4-12.299-30l-96.301-30v240z" fill="#f25a3c"></path>
      <g id="_Candy_Corn_1_">
        <g>
          <path d="m269.399 422c-2.699 38.401-16.5 63.6-41.699 77.1-24.001 12.6-55.2 12.9-87.901 12.9-.899 0-7.2 0-7.2 0-33.9 0-65.7 0-90.3-12.9-25.199-13.5-38.999-38.699-41.698-77.1z" fill="#ffdf40"></path>
          <path d="m231.301 242h-192.602c23.401-50.4 56.1-90 96.301-90s72.9 39.6 96.301 90z" fill="#f3f5f9"></path>
        </g>
        <g>
          <path d="m86.252 277.948h29.997v40.603h-29.997z" fill="#4d5e80" transform="matrix(.707 -.707 .707 .707 -181.239 158.95)"></path>
        </g>
        <g>
          <g>
            <g>
              <path d="m148.448 283.252h40.603v29.997h-40.603z" fill="#3d4566" transform="matrix(.707 -.707 .707 .707 -161.469 206.68)"></path>
            </g>
          </g>
        </g>
        <g>
          <path d="m60 347h150v30h-150z" fill="#4d5e80"></path>
        </g>
        <g>
          <path d="m473.301 270c-23.401 50.4-56.1 90-96.301 90s-72.9-39.6-96.301-90z" fill="#f3f5f9"></path>
          <path d="m511.399 90h-268.798c2.699-38.401 16.5-63.6 41.699-77.1 24.599-12.9 56.101-12.9 90.299-12.9h4.801c33.3 0 65.7 0 90.3 12.9 25.2 13.5 39 38.699 41.699 77.1z" fill="#ffdf40"></path>
        </g>
        <g>
          <g>
            <g>
              <path d="m395.752 193.448h29.997v40.603h-29.997z" fill="#3d4566" transform="matrix(.707 -.707 .707 .707 -30.838 353.05)"></path>
            </g>
          </g>
        </g>
        <g>
          <path d="m322.948 198.752h40.603v29.997h-40.603z" fill="#4d5e80" transform="matrix(.707 -.707 .707 .707 -50.609 305.32)"></path>
        </g>
        <g>
          <path d="m302 135h150v30h-150z" fill="#4d5e80"></path>
        </g>
      </g>
      <path d="m231.301 242c-23.401-50.4-56.1-90-96.301-90v90z" fill="#e1e6f0"></path>
      <path d="m135 512h4.799c32.701 0 63.9-.3 87.902-12.9 25.199-13.5 39-38.699 41.699-77.1h-134.4z" fill="#ffbe40"></path>
      <path d="m135 347h75v30h-75z" fill="#3d4566"></path>
      <path d="m377 360c40.201 0 72.9-39.6 96.301-90h-96.301z" fill="#e1e6f0"></path>
      <path d="m379.401 0h-2.401v90h134.399c-2.699-38.401-16.5-63.6-41.699-77.1-24.599-12.9-57-12.9-90.299-12.9z" fill="#ffbe40"></path>
      <path d="m377 135h75v30h-75z" fill="#3d4566"></path>
    </g>
  </symbol>
  <symbol id="003" enable-background="new 0 0 512 512" xmlns="http://www.w3.org/2000/svg" viewBox="0 0 512 512">
    <g>
      <path d="m421 256-42.475 30-47.525-30c0-4.501 0-5.7-14.7-18.6-16.8-15-45.3-39.6-45.3-86.4 0-5.4.3-10.201.901-15l74.099-30 25.499 30c-10.499 9.6-10.499 11.1-10.499 15 0 4.499 0 5.7 14.7 18.6 16.8 15 45.3 39.6 45.3 86.4z" fill="#ff7f40"></path>
      <path d="m378.525 286 42.475-30c0-46.8-28.5-71.4-45.3-86.4-14.7-12.9-14.7-14.101-14.7-18.6 0-3.9 0-5.4 10.499-15l-25.499-30v159.468z" fill="#f25a3c"></path>
      <path d="m421 466c0 24.899-20.099 46-45 46-11.7 0-22.2-5.501-30-12.7-9.3-8.101-15-20.099-15-33.3 0-4.501 0-5.7-14.7-18.6-15-13.2-39-34.2-44.399-71.4l44.099-30 30 16.199 25.499 13.801c1.201.899 2.701 2.1 4.2 3.6 16.801 15 45.301 39.6 45.301 86.4z" fill="#c68cff"></path>
      <path d="m421 466c0 24.899-20.099 46-45 46-11.7 0-22.2-5.501-30-12.7v-137.1l25.499 13.8c1.201.899 2.701 2.1 4.2 3.6 16.801 15 45.301 39.6 45.301 86.4z" fill="#aa80ff"></path>
      <path d="m241 151c0 46.8-28.5 71.4-45.3 86.4-14.7 12.9-14.7 14.099-14.7 18.6l-40.396 30-49.604-30c0-46.8 28.5-71.4 45.3-86.4 14.7-12.9 14.7-14.101 14.7-18.6 0-3.9 0-5.4-10.499-15l18.222-30 81.376 30c.601 4.799.901 9.6.901 15z" fill="#ff7f40"></path>
      <path d="m166 108.682v158.458l15-11.14c0-4.501 0-5.7 14.7-18.6 16.8-15 45.3-39.6 45.3-86.4 0-5.4-.3-10.201-.901-15z" fill="#f25a3c"></path>
      <path d="m240.099 376c-5.4 37.2-29.399 58.2-44.399 71.4-14.7 12.9-14.7 14.099-14.7 18.6 0 13.2-5.7 25.199-15 33.3-7.8 7.2-18.3 12.7-30 12.7-24.901 0-45-21.101-45-46 0-46.8 28.5-71.4 45.3-86.4 1.5-1.5 2.999-2.701 4.2-3.6l25.5-13.801 30-16.199z" fill="#c68cff"></path>
      <path d="m240.099 376c-5.4 37.2-29.399 58.2-44.399 71.4-14.7 12.9-14.7 14.099-14.7 18.6 0 13.2-5.7 25.199-15 33.3v-137.1l30-16.2z" fill="#aa80ff"></path>
      <g id="Worm_Candies_1_">
        <g>
          <path d="m241 361c0 5.4-.3 10.199-.901 15h-99.598c10.499-9.6 10.499-11.1 10.499-15 0-4.501 0-5.7-14.7-18.6-16.8-15-45.3-39.6-45.3-86.4h90c0 4.499 0 5.7 14.7 18.6 16.8 15 45.3 39.6 45.3 86.4z" fill="#ffdf40"></path>
          <path d="m240.099 136h-99.598c-1.201-.901-2.701-2.1-4.2-3.6-16.801-15-45.301-39.6-45.301-86.4 0-24.901 20.099-46 45-46 11.7 0 22.2 5.499 30 12.7 9.3 8.099 15 20.099 15 33.3 0 4.499 0 5.7 14.7 18.6 15 13.2 38.999 34.2 44.399 71.4z" fill="#91f2b1"></path>
        </g>
        <g>
          <path d="m421 256c0 46.8-28.5 71.4-45.3 86.4-14.7 12.9-14.7 14.099-14.7 18.6 0 3.9 0 5.4 10.499 15h-99.598c-.601-4.801-.901-9.6-.901-15 0-46.8 28.5-71.4 45.3-86.4 14.7-12.9 14.7-14.101 14.7-18.6z" fill="#ffdf40"></path>
          <path d="m421 46c0 46.8-28.5 71.4-45.3 86.4-1.5 1.5-2.999 2.699-4.2 3.6h-99.598c5.4-37.2 29.399-58.2 44.399-71.4 14.699-12.9 14.699-14.101 14.699-18.6 0-13.2 5.7-25.201 15-33.3 7.8-7.201 18.3-12.7 30-12.7 24.901 0 45 21.099 45 46z" fill="#91f2b1"></path>
        </g>
      </g>
      <path d="m195.7 274.6c-14.7-12.9-14.7-14.101-14.7-18.6h-15v120h74.099c.601-4.801.901-9.6.901-15 0-46.8-28.5-71.4-45.3-86.4z" fill="#ffbe40"></path>
      <path d="m240.099 136h-74.099v-123.3c9.3 8.099 15 20.099 15 33.3 0 4.499 0 5.7 14.7 18.6 15 13.2 38.999 34.2 44.399 71.4z" fill="#73e6ac"></path>
      <path d="m346 376h25.499c-10.499-9.6-10.499-11.1-10.499-15 0-4.501 0-5.7 14.7-18.6 16.8-15 45.3-39.6 45.3-86.4h-75z" fill="#ffbe40"></path>
      <path d="m421 46c0 46.8-28.5 71.4-45.3 86.4-1.5 1.5-2.999 2.699-4.2 3.6h-25.5v-123.3c7.8-7.201 18.3-12.7 30-12.7 24.901 0 45 21.099 45 46z" fill="#73e6ac"></path>
    </g>
  </symbol>
  <symbol id="004" enable-background="new 0 0 512 512" xmlns="http://www.w3.org/2000/svg" viewBox="0 0 512 512">
    <g>
      <g>
        <path d="m45 346c-24.814 0-45-20.186-45-45 0-7.939 2.212-15.688 6.299-22.5-4.087-6.812-6.299-14.561-6.299-22.5s2.212-15.688 6.299-22.5c-4.087-6.812-6.299-14.561-6.299-22.5 0-24.814 20.186-45 45-45 32.051 0 75 44.502 75 90s-42.949 90-75 90z" fill="#ffbe40"></path>
      </g>
      <g>
        <path d="m467 346c-32.051 0-75-44.502-75-90s42.949-90 75-90c24.814 0 45 20.186 45 45 0 7.939-2.212 15.688-6.299 22.5 4.087 6.812 6.299 14.561 6.299 22.5s-2.212 15.688-6.299 22.5c4.087 6.812 6.299 14.561 6.299 22.5 0 24.814-20.186 45-45 45z" fill="#ff9f40"></path>
      </g>
      <g>
        <path d="m256 406c-90.981 0-165-67.295-165-150s74.019-150 165-150 165 67.295 165 150-74.019 150-165 150z" fill="#ffdf40"></path>
      </g>
      <path d="m421 256c0-82.705-74.019-150-165-150v300c90.981 0 165-67.295 165-150z" fill="#ffbe40"></path>
      <g>
        <path d="m366.801 275.16-16.641-24.961c-28.22 18.651-60.153 35.801-94.16 35.801-33.978 0-66.144-17.341-94.175-35.771l-16.611 24.946c9.795 6.435 17.365 12.263 35.786 21.187v34.638h30v-22.745c13.929 4.402 29.291 7.745 45 7.745s31.071-3.344 45-7.745v22.745h30v-34.638c18.648-9.034 26.551-15.123 35.801-21.202z" fill="#4d5e80"></path>
        <path d="m291.948 184.752h40.603v29.997h-40.603z" fill="#3d4566" transform="matrix(.707 -.707 .707 .707 -49.789 279.3)"></path>
        <path d="m184.752 179.448h29.997v40.603h-29.997z" fill="#4d5e80" transform="matrix(.707 -.707 .707 .707 -82.739 199.75)"></path>
      </g>
      <path d="m301 308.255v22.745h30v-34.638c18.647-9.034 26.55-15.123 35.801-21.202l-16.641-24.961c-28.22 18.65-60.152 35.801-94.16 35.801v30c15.709 0 31.071-3.344 45-7.745z" fill="#3d4566"></path>
    </g>
  </symbol>
  <symbol id="005" enable-background="new 0 0 512 512" xmlns="http://www.w3.org/2000/svg" viewBox="0 0 512 512">
    <g>
      <g fill="#52cca3">
        <path d="m346 166-20.099 93.6-74.401-17.701c-28.801-24.372-59.36-27.877-63.9-29.399-.669-3.343-6.6-19.351-6.6-46.5 0-34.2 10.499-66 28.2-92.401l56.7 21z"></path>
        <path d="m482.5 258.399c-29.7 43.8-79.8 72.601-136.5 72.601-3.9 0-7.8 0-11.4-.601l-18.6-59.399 30-105 110.099-48.6z"></path>
        <path d="m494.2 93.699-38.101 38.701-110.099 33.6-90-105 101.4-60.401c60.3 3.9 111.599 41.501 136.8 93.1z"></path>
      </g>
      <path d="m166 346-20.099 123.6-128.101-51.301c-10.8-21.899-17.8-46.499-17.8-72.299 0-34.2 11.499-66 29.2-92.401l56.7 21z" fill="#f25a3c"></path>
      <g id="Candies_31_">
        <g fill="#91f2b1">
          <path d="m376 241c0 37.5-30 75-30 75l-11.4 14.399c-17.818-.575-32.092-5.336-35.099-6-2.809-7.071-3.279-46.123-48.001-82.5 14.1-1.199 30.6-4.499 44.401-12.299 32.698-18.9 50.099-63.6 50.099-63.6s30 37.5 30 75z"></path>
          <path d="m346 16s-30 37.5-30 75 30 75 30 75-47.401 7.2-80.099-11.4c-32.401-18.9-49.802-63.6-49.802-63.6l-6.899-17.401c30-43.8 80.1-73.599 136.8-73.599 3.9 0 7.8 0 11.4.599z"></path>
          <path d="m512 166c0 34.2-11.499 66-29.5 92.399l-6.599-17.399s-17.401-44.7-49.801-63.6c-32.699-18.6-80.1-11.4-80.1-11.4s17.401-44.7 50.099-63.6c32.401-18.6 79.802-11.4 79.802-11.4l18.3 2.699c10.799 21.901 17.799 46.201 17.799 72.301z"></path>
        </g>
      </g>
      <path d="m302.8 438.399c-29.7 43.8-79.799 73.601-136.8 73.601-3.9 0-7.8 0-11.4-.601l-18.6-60.399 30-105 110.099-48.6z" fill="#f25a3c"></path>
      <path d="m314.2 273.699-68.101 38.701-80.099 33.6-90-105 101.4-59.401c60.601 3.9 111.9 40.501 136.8 92.1z" fill="#f25a3c"></path>
      <path d="m166 196s-30 37.5-30 75 30 75 30 75-47.401 7.2-80.099-11.4c-32.401-18.9-49.802-63.6-49.802-63.6l-6.899-17.401c29.7-43.8 79.799-72.599 136.8-72.599 3.9 0 7.8 0 11.4.599z" fill="#ff7f40"></path>
      <path d="m196 421c0 37.5-30 75-30 75l-11.4 15.399c-60.601-3.9-111.899-41.499-136.8-93.1l18.3 2.701s47.401 7.2 79.801-11.4c32.698-18.9 50.099-63.6 50.099-63.6s30 37.5 30 75z" fill="#ff7f40"></path>
      <path d="m331 346c0 34.2-10.499 66-28.2 92.399l-6.899-17.399s-17.401-44.7-49.801-63.6c-32.699-18.6-80.1-11.4-80.1-11.4s17.401-44.7 50.099-63.6c32.401-18.6 79.801-11.4 79.801-11.4l18.3 2.699c10.8 21.901 16.8 46.501 16.8 72.301z" fill="#ff7f40"></path>
    </g>
  </symbol>
  <symbol id="006" enable-background="new 0 0 512 512" xmlns="http://www.w3.org/2000/svg" viewBox="0 0 512 512">
    <g>
      <g>
        <path d="m120 466c-16.876 0-31.816-9.653-39.346-24.082-10.869 2.08-20.332 2.622-27.905-3.486-3.53-2.857-7.749-8.203-7.749-17.432 0-25.342 33.955-75 75-75s75 49.658 75 75c0 9.229-4.219 14.575-7.749 17.432-7.573 6.094-17.021 5.537-27.905 3.486-7.53 14.429-22.472 24.082-39.346 24.082z" fill="#aa80ff"></path>
      </g>
      <path d="m159.346 441.918c10.884 2.051 20.332 2.607 27.905-3.486 3.53-2.856 7.749-8.203 7.749-17.432 0-25.342-33.955-75-75-75v120c16.875 0 31.816-9.653 39.346-24.082z" fill="#8a73ff"></path>
      <g>
        <path d="m120 166c-41.045 0-75-49.658-75-75 0-9.229 4.219-14.575 7.749-17.432 7.544-6.108 16.992-5.566 27.905-3.486 7.53-14.429 22.47-24.082 39.346-24.082 16.874 0 31.816 9.653 39.346 24.082 10.913-2.051 20.361-2.607 27.905 3.486 3.53 2.857 7.749 8.203 7.749 17.432 0 25.342-33.955 75-75 75z" fill="#aa80ff"></path>
      </g>
      <path d="m195 91c0-9.229-4.219-14.575-7.749-17.432-7.544-6.094-16.992-5.537-27.905-3.486-7.53-14.429-22.471-24.082-39.346-24.082v120c41.045 0 75-49.658 75-75z" fill="#8a73ff"></path>
      <g>
        <path d="m120 376c-66.167 0-120-53.833-120-120s53.833-120 120-120 120 53.833 120 120-53.833 120-120 120z" fill="#c68cff"></path>
      </g>
      <path d="m240 256c0-66.167-53.833-120-120-120v240c66.167 0 120-53.833 120-120z" fill="#aa80ff"></path>
      <g id="Sweets_1_">
        <g>
          <path d="m60.002 211.002h29.997v29.997h-29.997z" fill="#4d5e80" transform="matrix(.707 -.707 .707 .707 -137.839 119.227)"></path>
        </g>
        <g>
          <g>
            <g>
              <path d="m150.002 211.002h29.997v29.997h-29.997z" fill="#3d4566" transform="matrix(.707 -.707 .707 .707 -111.479 182.867)"></path>
            </g>
          </g>
        </g>
      </g>
      <g>
        <path d="m75 271h90v30h-90z" fill="#4d5e80"></path>
      </g>
      <path d="m120 271h45v30h-45z" fill="#3d4566"></path>
      <g>
        <path d="m392 466c-16.876 0-31.816-9.653-39.346-24.082-10.869 2.08-20.332 2.622-27.905-3.486-3.53-2.857-7.749-8.203-7.749-17.432 0-25.342 33.955-75 75-75s75 49.658 75 75c0 9.229-4.219 14.575-7.749 17.432-7.573 6.094-17.021 5.537-27.905 3.486-7.53 14.429-22.472 24.082-39.346 24.082z" fill="#aa80ff"></path>
      </g>
      <path d="m431.346 441.918c10.884 2.051 20.332 2.607 27.905-3.486 3.53-2.856 7.749-8.203 7.749-17.432 0-25.342-33.955-75-75-75v120c16.875 0 31.816-9.653 39.346-24.082z" fill="#8a73ff"></path>
      <g>
        <path d="m392 166c-41.045 0-75-49.658-75-75 0-9.229 4.219-14.575 7.749-17.432 7.544-6.108 16.992-5.566 27.905-3.486 7.53-14.429 22.47-24.082 39.346-24.082 16.874 0 31.816 9.653 39.346 24.082 10.913-2.051 20.361-2.607 27.905 3.486 3.53 2.857 7.749 8.203 7.749 17.432 0 25.342-33.955 75-75 75z" fill="#aa80ff"></path>
      </g>
      <path d="m467 91c0-9.229-4.219-14.575-7.749-17.432-7.544-6.094-16.992-5.537-27.905-3.486-7.53-14.429-22.471-24.082-39.346-24.082v120c41.045 0 75-49.658 75-75z" fill="#8a73ff"></path>
      <g>
        <path d="m392 376c-66.167 0-120-53.833-120-120s53.833-120 120-120 120 53.833 120 120-53.833 120-120 120z" fill="#c68cff"></path>
      </g>
      <path d="m512 256c0-66.167-53.833-120-120-120v240c66.167 0 120-53.833 120-120z" fill="#aa80ff"></path>
      <g id="Sweets_2_">
        <g>
          <path d="m332.002 211.002h29.997v29.997h-29.997z" fill="#4d5e80" transform="matrix(.707 -.707 .707 .707 -58.172 311.56)"></path>
        </g>
        <g>
          <g>
            <g>
              <path d="m422.002 211.002h29.997v29.997h-29.997z" fill="#3d4566" transform="matrix(.707 -.707 .707 .707 -31.812 375.2)"></path>
            </g>
          </g>
        </g>
      </g>
      <g>
        <path d="m347 271h90v30h-90z" fill="#4d5e80"></path>
      </g>
      <path d="m392 271h45v30h-45z" fill="#3d4566"></path>
    </g>
  </symbol>
  <symbol id="007" enable-background="new 0 0 512 512" xmlns="http://www.w3.org/2000/svg" viewBox="0 0 512 512">
    <g>
      <g id="Candies_3_">
        <g>
          <path d="m360.081 0h30v233.85h-30z" fill="#ccdeff"></path>
        </g>
      </g>
      <path d="m375.081 0h15v233.85h-15z" fill="#adbfe6"></path>
      <g>
        <g id="Candies_41_">
          <g>
            <path d="m120.081 278.15h30v233.85h-30z" fill="#ccdeff"></path>
          </g>
        </g>
        <path d="m135.081 278.15h15v233.85h-15z" fill="#adbfe6"></path>
        <path d="m201.908 59.24-119.056 29.764c-19.088 5.105-37.771-9.306-37.771-28.984 0-14.22 9.894-26.129 23.173-29.22l119.057-29.764c19.088-5.105 37.771 9.306 37.771 28.984-.001 14.22-9.894 26.129-23.174 29.22z" fill="#c68cff"></path>
        <path d="m203.746 182.511-119.057 29.764c-19.088 5.105-37.771-9.306-37.771-28.984 0-14.22 9.894-26.129 23.173-29.22l119.056-29.764c19.088-5.105 37.771 9.306 37.771 28.984.001 14.221-9.893 26.13-23.172 29.22z" fill="#c68cff"></path>
        <g fill="#ffdf40">
          <path d="m201.908 121.113-119.056 29.764c-19.088 5.105-37.771-9.306-37.771-28.984 0-14.22 9.894-26.129 23.173-29.22l119.057-29.763c19.088-5.105 37.771 9.306 37.771 28.984-.001 14.22-9.894 26.129-23.174 29.219z"></path>
          <path d="m203.746 244.392-119.057 29.764c-19.088 5.105-37.771-9.306-37.771-28.984 0-14.22 9.894-26.129 23.173-29.22l119.056-29.764c19.088-5.105 37.771 9.306 37.771 28.984.001 14.22-9.893 26.129-23.172 29.22z"></path>
        </g>
        <path d="m203.746 306.242-119.057 29.765c-19.088 5.105-37.771-9.306-37.771-28.984 0-14.22 9.894-26.129 23.173-29.22l119.056-29.764c19.088-5.105 37.771 9.306 37.771 28.984.001 14.22-9.893 26.129-23.172 29.219z" fill="#c68cff"></path>
        <path d="m310.092 452.761 119.056-29.764c19.088-5.105 37.771 9.306 37.771 28.984 0 14.22-9.894 26.129-23.173 29.22l-119.056 29.764c-19.088 5.105-37.771-9.306-37.771-28.984 0-14.221 9.893-26.13 23.173-29.22z" fill="#c68cff"></path>
        <path d="m310.092 390.887 119.056-29.764c19.088-5.105 37.771 9.306 37.771 28.984 0 14.22-9.894 26.129-23.173 29.22l-119.057 29.763c-19.088 5.105-37.771-9.306-37.771-28.984.001-14.22 9.894-26.129 23.174-29.219z" fill="#ffbe40"></path>
        <path d="m308.254 329.489 119.056-29.764c19.088-5.105 37.771 9.306 37.771 28.984 0 14.22-9.894 26.129-23.173 29.22l-119.056 29.764c-19.088 5.105-37.771-9.306-37.771-28.984 0-14.221 9.894-26.13 23.173-29.22z" fill="#c68cff"></path>
        <path d="m308.254 267.608 119.056-29.764c19.088-5.105 37.771 9.306 37.771 28.984 0 14.22-9.894 26.129-23.173 29.22l-119.056 29.764c-19.088 5.105-37.771-9.306-37.771-28.984 0-14.22 9.894-26.129 23.173-29.22z" fill="#ffbe40"></path>
        <path d="m308.254 205.758 119.056-29.764c19.088-5.105 37.771 9.306 37.771 28.984 0 14.22-9.894 26.129-23.173 29.22l-119.056 29.764c-19.088 5.105-37.771-9.306-37.771-28.984 0-14.221 9.894-26.13 23.173-29.22z" fill="#c68cff"></path>
        <path d="m189.149 248.038-54.067 13.517v61.853l68.665-17.166c13.279-3.091 23.172-15 23.172-29.22-.001-19.677-18.683-34.089-37.77-28.984z" fill="#aa80ff"></path>
        <path d="m189.149 186.189-54.067 13.517v61.851l68.665-17.166c13.279-3.089 23.172-14.998 23.172-29.218-.001-19.679-18.683-34.089-37.77-28.984z" fill="#ffbe40"></path>
        <path d="m189.149 124.308-54.067 13.517v61.853l68.665-17.166c13.279-3.091 23.172-15 23.172-29.22-.001-19.679-18.683-34.089-37.77-28.984z" fill="#aa80ff"></path>
        <path d="m187.31 62.909-52.229 13.057v61.853l66.826-16.707c13.281-3.091 23.174-15 23.174-29.22 0-19.677-18.682-34.088-37.771-28.983z" fill="#ffbe40"></path>
        <path d="m187.31 1.036-52.229 13.057v61.853l66.826-16.707c13.281-3.091 23.174-15 23.174-29.22 0-19.678-18.682-34.088-37.771-28.983z" fill="#aa80ff"></path>
        <path d="m427.31 175.992-52.229 13.057v61.853l66.826-16.707c13.281-3.089 23.174-14.998 23.174-29.22 0-19.675-18.682-34.086-37.771-28.983z" fill="#aa80ff"></path>
        <path d="m427.31 237.844-52.229 13.057v61.853l66.826-16.707c13.281-3.091 23.174-15 23.174-29.22 0-19.678-18.682-34.088-37.771-28.983z" fill="#ff9f40"></path>
        <path d="m427.31 299.724-52.229 13.057v61.853l66.826-16.707c13.281-3.091 23.174-15 23.174-29.22 0-19.678-18.682-34.088-37.771-28.983z" fill="#aa80ff"></path>
        <path d="m429.149 361.123-54.067 13.517v61.851l68.665-17.166c13.279-3.089 23.172-14.998 23.172-29.218-.001-19.679-18.683-34.089-37.77-28.984z" fill="#ff9f40"></path>
        <path d="m429.149 422.996-54.067 13.517v61.853l68.665-17.166c13.279-3.091 23.172-15 23.172-29.22-.001-19.678-18.683-34.089-37.77-28.984z" fill="#aa80ff"></path>
      </g>
    </g>
  </symbol>
  <symbol id="008" enable-background="new 0 0 509.92 509.92" xmlns="http://www.w3.org/2000/svg" viewBox="0 0 509.92 509.92">
    <g>
      <path d="m266.02 372.096-12.748 92.401-76.651 38.099c-18.3-3.6-39.901-9.3-60-18.3l19.499-102.474 68.401-26.225c7.8 1.5 16.199 2.699 24 3.6 13.499.6 26.399 5.099 37.499 12.899z" fill="#aa80ff"></path>
      <path d="m155.32 321.396-8.699 86.409-79.801 42.591c-15.599-15.599-28.799-33.6-39-49.199l14.882-95.448 74.818-35.354c11.1 7.8 20.101 18.301 25.501 30.3 3.299 6.602 7.8 14.102 12.299 20.701z" fill="#aa80ff"></path>
      <path d="m507.219 374.497c-4.199 21.599-11.699 42.9-19.199 60l-69.451 30-88.65-30c0-13.5 3.6-26.7 10.499-38.401 3.6-6.299 7.202-14.099 10.501-21.599l79.5-30z" fill="#52cca3"></path>
      <path d="m507.219 314.497-76.799 30-79.5-30c-3.001-7.2-6.601-15-10.501-21.901-6.899-11.398-10.499-24.598-10.499-38.099l82.5-30 75.901 30c7.199 17.1 14.699 38.399 18.898 60z" fill="#52cca3"></path>
      <g id="Candies_42_">
        <g fill="#c68cff">
          <path d="m266.02 372.096-89.4 130.5c17.399 3.602 31.8 5.402 39 6 25.794 2.868 53.559-8.412 69.901-32.399 23.399-34.2 14.699-81-19.501-104.101zm-252.9-82.199c-15.601 23.101-17.401 52.5-4.799 76.8 3.3 6.599 9.899 19.501 19.499 34.501l89.7-130.801c-33.549-23.181-80.576-14.981-104.4 19.5z"></path>
          <path d="m204.52 355.597-87.9 128.699c-9.3-3.9-18.3-8.699-26.4-14.399-8.401-5.7-16.201-12.301-23.401-19.501l88.5-129c7.5 11.7 15.3 21.601 19.501 24.6 3.901 2.701 15.899 6.6 29.7 9.601z"></path>
        </g>
        <path d="m376.119 128.497c-9.6 9.6-21.599 16.199-34.499 19.501-7.5 2.098-15.601 5.099-22.8 8.099l-82.801-22.801-27.599-87.6c18.3-12.599 38.399-22.2 55.8-29.099l84.6 24.6z" fill="#f25a3c"></path>
        <path d="m276.221 198.397v.3c-3.001 7.798-6 15.599-7.8 22.798-3.6 12.9-10.201 24.901-19.801 34.2l-90.68-30.68-21.219-81.219c6.899-17.1 16.5-37.5 29.399-55.499l85.5 25.5z" fill="#f25a3c"></path>
        <g>
          <path d="m329.92 434.497c0 41.4 33.6 75 75 75 27.599 0 53.101-15.3 66-39.3 3.6-6.301 10.499-19.2 17.1-35.7zm177.299-120h-156.299c5.4 13.2 9 25.199 9 30 0 5.4-3.9 17.399-9 30h156.299c1.501-9.901 2.701-20.101 2.701-30 0-9.901-1.199-20.101-2.701-30zm-35.998-95.4c-13.2-24.3-38.701-39.6-66.301-39.6-41.4 0-75 33.6-75 75h158.401c-6.901-16.201-13.501-29.101-17.1-35.4z" fill="#91f2b1"></path>
        </g>
      </g>
      <path d="m248.619 255.696c-28.155 28.743-76.834 29.671-105.899 0-19.801-19.499-27.001-48.3-18.9-74.7 2.1-6.899 6.301-20.7 12.9-37.2z" fill="#ff7f40"></path>
      <path d="m318.82 156.096c-13.2 5.4-24 11.1-27.599 14.7s-9.6 15-15 27.601l-110.102-110.099c5.4-8.401 12.001-16.501 18.9-23.401 6.901-7.2 15-13.5 23.401-19.2z" fill="#ff7f40"></path>
      <g>
        <path d="m376.119 128.497-111.899-111.9c16.199-6.601 30-11.1 37.2-12.9 26.4-8.101 54.901-.901 74.7 18.6 29.1 29.4 29.1 77.1-.001 106.2z" fill="#ff7f40"></path>
      </g>
    </g>
  </symbol>
  <symbol id="009" enable-background="new 0 0 512 512" xmlns="http://www.w3.org/2000/svg" viewBox="0 0 512 512">
    <g>
      <g>
        <g>
          <path d="m256 100.005-75-100.005h150z" fill="#f25a3c"></path>
        </g>
      </g>
      <path d="m256 100.005 75-100.005h-75z" fill="#e63a3a"></path>
      <g>
        <g>
          <path d="m128.822 127.822-123.735-17.68 106.055-106.055z" fill="#aa80ff"></path>
        </g>
      </g>
      <g>
        <path d="m383.178 127.822 17.68-123.735 106.055 106.055z" fill="#48b3a1"></path>
      </g>
      <g>
        <path d="m234.379 210h-129.316l-4.497-6.05c-25.854-34.717-25.884-78.647-.073-104.458 27.51-27.48 76.553-24.858 111.694 5.933l8.159 7.163c-2.17 6.342-9.346 16.23-9.346 37.412 0 29.674 14.741 42.838 23.379 60z" fill="#c68cff"></path>
      </g>
      <g>
        <path d="m406.938 210h-129.317c7.975-15.845 23.379-29.974 23.379-60 0-20.834-7.081-30.793-9.346-37.412l8.159-7.163c35.127-30.791 84.185-33.442 111.694-5.933 25.811 25.811 25.781 69.741-.073 104.458z" fill="#52cca3"></path>
      </g>
      <g>
        <path d="m312.528 210h-113.056l-4.365-7.324c-9.229-15.513-14.107-33.721-14.107-52.676 0-52.178 35.916-90 75-90 38.639 0 75 37.41 75 90 0 18.955-4.878 37.163-14.106 52.676z" fill="#ff7f40"></path>
      </g>
      <path d="m312.528 210 4.365-7.324c9.229-15.513 14.107-33.721 14.107-52.676 0-52.59-36.361-90-75-90v150z" fill="#f25a3c"></path>
      <g>
        <path d="m451 255c0-21.601-3.9-43.5-11.4-65.101l-3.6-9.899h-360l-3.6 9.899c-7.5 21.601-11.4 43.5-11.4 65.101 0 21 3.6 41.999 10.499 62.999-6.899 12.9-10.499 27.301-10.499 42.001 0 49.499 40.499 90 90 90v62h60l15-62 15 62h30l15-62 15 62h60v-62c49.501 0 90-40.501 90-90 0-14.7-3.6-29.101-10.499-42.001 6.899-21 10.499-41.999 10.499-62.999z" fill="#f3f5f9"></path>
      </g>
      <path d="m439.6 189.899-3.6-9.899h-180v332h15l15-62 15 62h60v-62c49.501 0 90-40.501 90-90 0-14.7-3.6-29.101-10.499-42.001 6.899-21 10.499-41.999 10.499-62.999 0-21.601-3.9-43.5-11.4-65.101z" fill="#cfd7e6"></path>
      <g id="Candies_Box_1_">
        <g>
          <path d="m271 420h30v92h-30z" fill="#adbfe6"></path>
        </g>
        <g>
          <path d="m211 420h30v92h-30z" fill="#ccdeff"></path>
        </g>
        <g>
          <path d="m196 360c-24.814 0-45-20.186-45-45s20.186-45 45-45 45 20.186 45 45-20.186 45-45 45z" fill="#ccdeff"></path>
        </g>
        <g>
          <path d="m316 360c-24.814 0-45-20.186-45-45s20.186-45 45-45 45 20.186 45 45-20.186 45-45 45z" fill="#adbfe6"></path>
        </g>
      </g>
    </g>
  </symbol>
</svg>